HIERARCHY
ROOT Hips
{
   OFFSET 0.00000 0.00000 0.00000
   CHANNELS 6 Xposition Yposition Zposition Zrotation Xrotation Yrotation
   JOINT RightUpLeg
   {
      OFFSET -8.945800 -8.667070 0.101652
      CHANNELS 3 Zrotation Xrotation Yrotation
      JOINT RightLeg
      {
         OFFSET 0.000000 -44.422697 1.372700
         CHANNELS 3 Zrotation Xrotation Yrotation
         JOINT RightFoot
         {
            OFFSET 0.253549 -42.092399 -1.460590
            CHANNELS 3 Zrotation Xrotation Yrotation
            JOINT RightToes
            {
               OFFSET 0.040000 -4.415090 8.499099
               CHANNELS 3 Zrotation Xrotation Yrotation
               End Site
               {
                  OFFSET -0.080000 -0.137448 9.779790
               }
            }
         }
      }
   }
   JOINT Spine
   {
      OFFSET 0.000000 11.890501 0.000000
      CHANNELS 3 Zrotation Xrotation Yrotation
      JOINT Spine1
      {
         OFFSET 0.000000 25.657401 0.127663
         CHANNELS 3 Zrotation Xrotation Yrotation
         JOINT HEad
         {
            OFFSET 0.000000 8.734161 0.011341
            CHANNELS 3 Zrotation Xrotation Yrotation
            End Site
            {
               OFFSET -0.290000 12.774200 2.513950
            }
         }
         JOINT LeftShoulder1
         {
            OFFSET 8.990000 -0.362252 -0.220000
            CHANNELS 3 Zrotation Xrotation Yrotation
            JOINT LeftArm
            {
               OFFSET 10.282700 -0.003380 0.322123
               CHANNELS 3 Zrotation Xrotation Yrotation
               JOINT LeftForeArm
               {
                  OFFSET 32.766900 0.099144 -1.424340
                  CHANNELS 3 Zrotation Xrotation Yrotation
                  JOINT LeftHand
                  {
                     OFFSET 27.564301 0.085362 1.022160
                     CHANNELS 3 Zrotation Xrotation Yrotation
                     End Site
                     {
                        OFFSET 16.744301 -0.600000 1.502910
                     }
                  }
               }
            }
         }
         JOINT RightShoulder
         {
            OFFSET -8.990000 -0.362252 -0.220000
            CHANNELS 3 Zrotation Xrotation Yrotation
            JOINT RightArm
            {
               OFFSET -10.282700 -0.003380 0.322123
               CHANNELS 3 Zrotation Xrotation Yrotation
               JOINT RightForeArm
               {
                  OFFSET -32.897098 0.099144 -1.424340
                  CHANNELS 3 Zrotation Xrotation Yrotation
                  JOINT RightHand
                  {
                     OFFSET -27.492101 0.085362 1.022160
                     CHANNELS 3 Zrotation Xrotation Yrotation
                     End Site
                     {
                        OFFSET -16.631201 -0.600000 1.502910
                     }
                  }
               }
            }
         }
      }
   }
   JOINT LeftUpLeg
   {
      OFFSET 8.945800 -8.667070 0.101652
      CHANNELS 3 Zrotation Xrotation Yrotation
      JOINT LeftLeg
      {
         OFFSET 0.000000 -44.422697 1.372700
         CHANNELS 3 Zrotation Xrotation Yrotation
         JOINT LeftFoot
         {
            OFFSET -0.253549 -42.092399 -1.460590
            CHANNELS 3 Zrotation Xrotation Yrotation
            JOINT LeftToes
            {
               OFFSET -0.040000 -4.415090 8.499099
               CHANNELS 3 Zrotation Xrotation Yrotation
               End Site
               {
                  OFFSET 0.080000 -0.047448 9.779790
               }
            }
         }
      }
   }
}
MOTION
Frames: 19
Frame Time: 0.016667
9.59957 98.9623 -42.0523 26.7517 59.2911 -173.392 -20.0298 -0.563687 -14.8473 39.7056 4.82015 -28.6822 -2.59619 29.5724 -23.6694 0.0462048 0.000533403 0.662642 22.7991 54.9955 -15.41 -0.0180729 -0.00458103 -0.00339165 25.4215 20.3236 -21.8009 -3.23025e-015 -1.98785e-016 1.59028e-015 -93.1303 -24.1455 -50.3118 -65.4174 9.62734 -30.1786 21.2271 45.796 -23.1895 43.1057 1.16268 -6.8915 96.5306 -56.4747 60.5202 20.392 28.7406 51.4671 16.4579 30.1572 3.55291 39.3636 15.2579 -33.183 -46.254 28.128 92.3503 12.2582 -10.0584 -2.84204 -1.80357e-010 1.55988e-007 -4.8394e-009 
9.18915 98.7479 -41.8901 25.3584 58.5065 -172.33 -20.1735 -1.04914 -17.4136 41.2969 12.0541 -26.1485 -1.56462 30.6574 -25.8931 0.0462048 0.000533403 0.662642 22.5418 54.1819 -15.6231 -0.0149751 0.00291904 -0.00446704 27.304 22.5233 -22.6743 -5.96354e-016 -3.97569e-016 1.59028e-015 -93.4464 -23.0895 -51.0732 -64.9785 10.5405 -30.8173 20.7487 45.29 -22.8328 42.2425 1.45692 -7.13573 97.8606 -56.3412 62.564 21.7667 30.1096 51.926 16.4663 30.1484 3.2396 38.3414 14.1122 -33.8766 -48.2964 27.9637 95.0216 10.6076 -10.5444 -3.45381 -1.80352e-010 1.55988e-007 -4.8394e-009 
8.77247 98.6315 -41.7623 24.1288 57.5628 -171.286 -19.113 -2.61947 -20.4413 40.5042 19.964 -27.6696 -2.50947 30.879 -23.4068 0.0462048 0.000533403 0.662642 21.9701 52.7324 -15.5455 -0.0113758 0.0104791 -0.00612287 29.1421 24.6719 -23.9009 5.81445e-015 -1.59028e-015 -0 -93.4318 -21.9752 -51.4971 -64.5842 11.4278 -31.3594 20.1858 44.7672 -22.2958 41.5996 2.06597 -7.81731 99.2154 -56.1419 64.8426 23.2607 31.6205 52.2549 16.3985 30.0705 2.95753 37.4009 13.0161 -34.4667 -49.9298 27.6526 97.17 8.9537 -10.9785 -4.05556 -1.80353e-010 1.55988e-007 -4.8394e-009 
8.27402 98.4691 -41.5244 22.3836 54.5025 -170.06 -16.4165 -5.4165 -25.0405 33.5963 26.4494 -25.8971 -1.72225 31.4839 -20.0725 0.0462048 0.000533403 0.662642 19.9706 48.9173 -14.5174 -0.00800229 0.0178593 -0.00808042 30.8648 26.6913 -25.3847 -5.96354e-016 7.95139e-016 -1.59028e-015 -93.221 -21.0068 -51.6465 -64.3612 12.3862 -31.6887 19.72 44.2415 -21.7144 41.1421 2.96913 -8.85567 100.599 -55.8115 67.3142 24.8519 33.2507 52.4472 16.1732 29.8755 2.61337 35.227 10.6065 -33.7367 -50.9074 27.1854 98.8202 7.3625 -11.1512 -4.43363 -1.80352e-010 1.55988e-007 -4.8394e-009 
7.7968 98.1568 -41.3963 21.0874 51.6226 -169.285 -13.0793 -7.99538 -29.8442 25.6206 32.2452 -22.9259 -2.30627 32.1741 -16.5484 0.0462048 0.000533403 0.662642 18.2706 44.9903 -13.6612 -0.0049516 0.0248795 -0.0100961 32.3635 28.5389 -27.0099 -2.98177e-016 0 1.59028e-015 -92.9506 -20.3867 -51.5862 -64.4293 13.5097 -31.6952 19.3998 43.7001 -21.1512 40.7894 4.14322 -10.1584 102.02 -55.2948 69.9115 26.5165 34.9783 52.5032 15.7784 29.5988 2.34278 33.3053 8.34472 -33.0728 -51.6971 26.7566 100.103 5.75623 -11.2963 -4.78539 -1.80354e-010 1.55988e-007 -4.8394e-009 
7.30798 97.8041 -41.2653 20.0674 48.7533 -168.83 -9.58769 -10.6811 -34.7254 16.8002 37.1251 -19.0236 -3.74882 32.283 -12.7579 0.0462048 0.000533403 0.662642 17.1559 41.26 -13.3321 0.0117671 0.0378297 -0.0119265 33.4337 30.1202 -28.4091 -4.17448e-015 -7.95139e-016 -7.95139e-016 -93.0058 -20.0729 -51.7905 -64.7036 14.7224 -31.6115 19.148 43.1245 -20.6007 40.2115 5.25339 -11.3461 103.382 -54.602 72.4497 28.2534 36.7426 52.5355 15.3342 29.2926 2.06137 31.4045 6.07237 -32.4493 -52.1888 26.3059 101.195 4.20909 -11.3152 -5.0541 -1.80352e-010 1.55988e-007 -4.8394e-009 
6.8046 97.5529 -41.1242 19.329 45.8976 -168.685 -6.28065 -13.7983 -39.4216 7.24327 41.5705 -14.645 -5.49766 31.6689 -8.98312 0.0462048 0.000533403 0.662642 16.5357 37.8551 -13.3909 0.0133188 0.0367598 -0.0133278 34.076 31.3783 -29.4747 3.97569e-016 0 -7.95139e-016 -93.3005 -20.1629 -52.4112 -64.9982 17.1318 -30.5293 20.5067 41.4544 -21.0548 39.4475 6.23444 -12.258 104.732 -53.7634 74.9603 30.0353 38.5346 52.5002 14.813 28.9074 1.80077 29.5941 3.79015 -31.875 -52.4129 25.8259 102.072 2.72556 -11.2155 -5.23527 -1.80354e-010 1.55988e-007 -4.8394e-009 
6.26069 97.5298 -40.9447 19.1224 42.6149 -169.38 -2.94176 -17.9041 -43.5484 -3.72956 45.5433 -9.38688 -6.82994 30.3289 -5.50081 0.0462048 0.000533403 0.662642 16.0946 34.3383 -13.193 0.0125591 0.0375299 -0.0137671 34.2742 32.3576 -30.1613 -1.19271e-015 1.59028e-015 -0 -93.7443 -20.7641 -53.3048 -65.5527 20.5829 -28.5136 23.1269 38.7894 -22.3329 38.5118 7.09334 -12.863 106.049 -52.7723 77.4004 31.8447 40.3591 52.399 14.204 28.4438 1.59192 27.9446 1.29374 -30.8401 -52.3486 25.3834 102.116 1.33814 -11.0048 -5.26965 -1.80355e-010 1.55988e-007 -4.8394e-009 
5.79574 97.6597 -40.6116 18.5319 39.0914 -170.351 1.39739 -20.1341 -46.8327 -14.3983 43.3566 -4.50801 -8.93173 28.4639 -1.56103 0.0462048 0.000533403 0.662642 15.1976 31.0651 -12.6071 0.001408 0.0389789 -0.0041765 33.774 33.2644 -30.0232 -1.59028e-015 0 1.59028e-015 -94.7364 -23.0293 -55.178 -66.4089 24.3787 -26.5157 27.9643 40.1131 -23.4272 35.1683 10.8849 -11.6716 112.774 -51.0743 82.3335 34.1401 42.7684 52.3958 16.6187 25.1037 2.97033 26.0031 -1.03868 -29.8147 -51.3497 24.7922 101.178 -0.023217 -10.3516 -5.04912 -1.80353e-010 1.55988e-007 -4.8394e-009 
5.38444 97.9313 -40.2748 17.5541 35.3674 -171.63 5.71228 -21.334 -48.8631 -21.7995 39.0362 -3.54729 -10.198 25.6133 1.94575 0.0462048 0.000533403 0.662642 13.8618 28.031 -11.6686 -0.00146181 0.039659 -0.00458629 32.5555 34.1288 -29.0556 -2.43511e-015 7.95139e-016 -7.95139e-016 -96.4493 -26.7219 -58.0365 -67.6383 28.5227 -24.5555 33.2015 43.0221 -24.0071 31.9836 13.6739 -10.3871 116.883 -48.3786 84.2069 36.8906 45.6478 52.2658 19.8518 20.9094 5.50103 23.8983 -3.25438 -28.8388 -49.8106 23.9889 99.5253 -1.45129 -9.35323 -4.65404 -1.80354e-010 1.55988e-007 -4.8394e-009 
5.02174 98.3083 -39.941 16.2079 31.4936 -173.251 9.87955 -21.8767 -49.5166 -26.4882 34.3536 -5.65263 -10.6958 21.7854 4.87043 0.0462048 0.000533403 0.662642 12.1289 25.2338 -10.4263 -0.00134351 0.0383191 -0.00568563 30.6183 34.9209 -27.2701 8.94531e-016 7.95139e-016 3.97569e-016 -99.173 -31.5549 -62.0168 -69.2922 33.0002 -22.634 37.7534 46.5715 -24.0149 28.8415 15.5676 -9.05855 119.095 -44.9225 83.8056 40.1456 48.8114 51.6675 23.073 16.9346 8.84723 21.6694 -5.38347 -27.9242 -47.9542 22.9124 97.3635 -2.98642 -8.07393 -4.12558 -1.80355e-010 1.55988e-007 -4.8394e-009 
4.76282 98.7394 -39.6448 13.6645 27.3773 -175.84 13.871 -20.1496 -47.4101 -25.2465 28.1888 -10.7895 -15.4856 16.7212 7.77414 0.0462048 0.000533403 0.662642 9.02112 23.386 -8.21635 -5.26743e-005 0.108791 -0.0192708 26.1898 35.1502 -22.7136 -1.00635e-015 0 -4.96962e-017 -106.105 -39.1324 -70.268 -71.2352 38.4036 -20.8934 38.2842 50.7364 -22.7916 26.0582 14.7477 -7.32527 117.39 -39.8258 78.5758 44.6063 52.0235 49.9621 25.1383 14.9953 13.4982 19.1924 -7.20609 -26.7686 -46.2157 21.769 94.0696 -5.43537 -6.82338 -3.58387 -1.80354e-010 1.55988e-007 -4.8394e-009 
4.60311 99.3293 -39.3014 10.1626 23.304 -179.373 15.8368 -16.7349 -43.5677 -21.3145 21.44 -15.507 -18.6425 12.4398 8.95076 0.0462048 0.000533403 0.662642 4.72591 22.3171 -5.3286 0.000229274 0.101481 -0.0233306 19.7051 34.5959 -16.0093 -1.1368e-015 -2.98177e-016 -3.97569e-016 -118.873 -46.8976 -83.8287 -73.9505 44.4929 -18.8363 26.4305 34.3075 -16.8225 23.2832 13.0053 -5.37617 115.66 -33.129 72.6206 50.057 54.7133 47.0076 26.9961 16.9141 15.7495 16.8243 -8.40374 -25.3349 -44.3921 19.9107 89.2932 -8.84151 -5.63424 -3.05334 -1.80348e-010 1.55988e-007 -4.8394e-009 
4.50704 99.9815 -38.9315 5.89318 19.5837 176.203 15.584 -11.8495 -38.7069 -14.9648 13.4099 -18.8326 -23.3828 9.20678 9.43886 0.0462048 0.000533403 0.662642 -0.67618 21.868 -1.99579 -0.00216058 0.0921411 -0.0267314 11.6622 32.7267 -7.81184 1.39149e-015 -3.97569e-016 -7.95139e-016 -139.089 -51.7561 -104.179 -77.7582 50.8394 -16.0903 28.1641 48.0546 -17.2236 20.7992 10.4395 -3.16396 114.683 -25.5745 67.0113 56.5443 56.6808 42.8377 17.3873 27.6661 5.02765 14.6113 -8.93939 -23.5737 -42.6084 17.1886 83.4483 -13.1892 -4.79903 -2.62176 -1.80351e-010 1.55988e-007 -4.8394e-009 
4.44026 100.697 -38.5245 2.4971 16.5682 172.111 13.7817 -1.6507 -35.2074 -1.12973 -3.21563 -20.2331 -33.2592 9.74977 11.0112 0.0462048 0.000533403 0.662642 -5.17732 21.3147 0.628492 -0.0158022 -0.0134413 -0.000550469 3.17187 30.3825 0.42887 -2.98177e-016 -1.59028e-015 -0 -162.426 -51.548 -126.98 -91.0221 53.8021 -6.05738 23.8117 30.0161 -14.5905 19.1637 8.32454 -1.40127 114.607 -20.6384 64.2678 60.0843 57.5437 40.6942 19.3427 29.4523 4.76994 12.7557 -9.41436 -22.3505 -39.9417 14.9398 76.8553 -18.514 -4.40798 -2.38281 -1.80358e-010 1.55988e-007 -4.8394e-009 
4.32693 101.426 -38.1082 -0.0560637 14.1259 168.46 12.2683 -2.35808 -30.3103 -1.27087 -3.03572 -19.6171 -33.1857 7.6076 8.51447 0.0462048 0.000533403 0.662642 -8.80694 20.7691 2.68307 -0.0185522 -0.0181614 -0.000190769 -3.95301 27.5493 7.17184 -9.93923e-016 0 -0 177.254 -45.7556 -146.641 -108.644 52.162 7.76777 20.5474 34.5658 -14.1292 18.2042 6.52306 0.0190324 114.812 -17.2942 62.9863 61.5438 58.1664 39.9208 15.9411 34.5479 0.0299649 11.0197 -9.83321 -21.6397 -36.5603 12.7202 70.2609 -23.868 -4.25931 -2.29424 -1.80351e-010 1.55988e-007 -4.8394e-009 
4.17412 102.116 -37.748 -1.8303 12.1586 165.316 11.2181 -3.2199 -25.6452 -1.45573 -2.67636 -19.3389 -33.4136 6.59122 6.36745 0.0462048 0.000533403 0.662642 -11.6419 20.2901 4.29701 -0.0185522 -0.0171014 -0.000190769 -9.76417 24.6152 12.5873 -3.97569e-016 -3.18055e-015 1.59028e-015 166.804 -39.1531 -156.831 -119.74 49.2143 16.0108 19.9154 25.5056 -13.583 17.7892 5.1172 1.01953 115.128 -14.9142 62.4107 61.9423 59.0288 39.8671 18.1338 34.3551 0.548221 9.29915 -9.97786 -21.3798 -32.0845 10.955 64.6121 -29.6731 -4.15169 -2.3429 -1.80358e-010 1.55988e-007 -4.8394e-009 
3.86732 102.772 -37.544 -2.89956 10.5486 162.667 9.83742 -3.6939 -21.1912 -1.56496 -2.22152 -19.5903 -33.083 6.28658 4.79427 0.0462048 0.000533403 0.662642 -13.7777 19.9156 5.56973 -0.0185522 -0.0149514 -0.000190769 -14.4086 21.7945 16.9047 -1.59028e-015 0 -0 161.53 -33.7771 -162.371 -126.279 46.4189 20.603 18.5911 29.0033 -13.7777 17.7285 4.08358 1.75617 115.587 -13.247 62.322 61.6795 60.0612 40.1758 16.3279 36.4607 -1.38934 7.38517 -9.58716 -21.5369 -26.3765 9.55108 60.989 -35.9589 -3.64023 -2.31648 -1.80352e-010 1.55988e-007 -4.8394e-009 
3.37122 103.301 -37.5712 -3.41716 9.23397 160.486 8.08294 -3.59349 -16.8386 -1.48389 -1.79369 -20.3384 -32.0222 6.53548 3.54727 0.0462048 0.000533403 0.662642 -15.2212 19.2768 6.50005 -0.0185522 -0.00780132 -0.000190769 -18.1989 19.5948 20.4875 -3.97569e-016 0 -0 158.822 -30.2714 -165.809 -129.937 44.2869 23.001 18.5407 24.3751 -13.7159 17.8249 3.76836 2.19847 116.149 -12.1337 62.5686 61.1803 61.2523 40.6307 17.6973 35.7208 -0.514393 5.72735 -8.06893 -22.0321 -20.007 7.6748 59.7586 -42.5284 -2.26 -1.77355 -1.80345e-010 1.55988e-007 -4.8394e-009 
